<svg xmlns="http://www.w3.org/2000/svg" xmlns:xlink="http://www.w3.org/1999/xlink" width="1920" zoomAndPan="magnify" viewBox="0 0 1440 809.999993" height="1080" preserveAspectRatio="xMidYMid meet" version="1.2"><defs><clipPath id="c7762a26e4"><path d="M 608 0 L 1440 0 L 1440 400 L 608 400 Z M 608 0 "/></clipPath><clipPath id="417e99d192"><path d="M 492.375 -121.808594 L 1210.949219 -624.140625 L 1745.511719 140.535156 L 1026.9375 642.871094 Z M 492.375 -121.808594 "/></clipPath><clipPath id="1f7e3f92e9"><path d="M 492.375 -121.808594 L 1210.949219 -624.140625 L 1745.511719 140.535156 L 1026.9375 642.871094 Z M 492.375 -121.808594 "/></clipPath><filter x="0%" y="0%" width="100%" filterUnits="objectBoundingBox" id="4d29920652" height="100%"><feColorMatrix values="0 0 0 0 1 0 0 0 0 1 0 0 0 0 1 0 0 0 1 0" type="matrix" in="SourceGraphic"/></filter><clipPath id="1d5d18409e"><path d="M 0 257 L 1440 257 L 1440 810 L 0 810 Z M 0 257 "/></clipPath><clipPath id="3c1ec4b7cc"><path d="M 67.402344 235.011719 L 1490.90625 600.859375 L 1397.355469 964.847656 L -26.144531 599 Z M 67.402344 235.011719 "/></clipPath><clipPath id="92558c6a71"><path d="M 67.402344 235.011719 L 1490.90625 600.859375 L 1397.355469 964.847656 L -26.144531 599 Z M 67.402344 235.011719 "/></clipPath><clipPath id="9a12dd2951"><path d="M 0 17 L 1421 17 L 1421 475 L 0 475 Z M 0 17 "/></clipPath><clipPath id="cd48bda4f0"><path d="M 24.578125 -4.515625 L 1448.078125 361.332031 L 1354.53125 725.320312 L -68.96875 359.472656 Z M 24.578125 -4.515625 "/></clipPath><clipPath id="9dddf3bf9a"><path d="M 24.578125 -4.515625 L 1448.078125 361.332031 L 1354.53125 725.320312 L -68.96875 359.472656 Z M 24.578125 -4.515625 "/></clipPath><clipPath id="a4dce7d1c2"><rect x="0" width="1440" y="0" height="475"/></clipPath><clipPath id="e4563071c3"><path d="M 0 459 L 1404 459 L 1404 810 L 0 810 Z M 0 459 "/></clipPath><clipPath id="1c9f9e0113"><path d="M 7.972656 437.859375 L 1431.472656 803.707031 L 1337.925781 1167.695312 L -85.574219 801.847656 Z M 7.972656 437.859375 "/></clipPath><clipPath id="cfdd3fa0a6"><path d="M 7.972656 437.859375 L 1431.472656 803.707031 L 1337.925781 1167.695312 L -85.574219 801.847656 Z M 7.972656 437.859375 "/></clipPath><clipPath id="c63a2e6636"><path d="M 0 546 L 1365 546 L 1365 810 L 0 810 Z M 0 546 "/></clipPath><clipPath id="5da2bf0fbb"><path d="M -30.957031 524.171875 L 1392.542969 890.019531 L 1298.996094 1254.007812 L -124.503906 888.160156 Z M -30.957031 524.171875 "/></clipPath><clipPath id="e38b9625e6"><path d="M -30.957031 524.171875 L 1392.542969 890.019531 L 1298.996094 1254.007812 L -124.503906 888.160156 Z M -30.957031 524.171875 "/></clipPath><clipPath id="a7b7f1d3b4"><path d="M 0 655 L 1307 655 L 1307 810 L 0 810 Z M 0 655 "/></clipPath><clipPath id="b666e375c8"><path d="M -88.886719 633.46875 L 1334.613281 999.320312 L 1241.066406 1363.304688 L -182.433594 997.457031 Z M -88.886719 633.46875 "/></clipPath><clipPath id="f9e193322c"><path d="M -88.886719 633.46875 L 1334.613281 999.320312 L 1241.066406 1363.304688 L -182.433594 997.457031 Z M -88.886719 633.46875 "/></clipPath><clipPath id="b12f28cf8e"><rect x="0" width="1440" y="0" height="810"/></clipPath></defs><g id="538ab0ef47"><rect x="0" width="1440" y="0" height="809.999993" style="fill:#ffffff;fill-opacity:1;stroke:none;"/><rect x="0" width="1440" y="0" height="809.999993" style="fill:#f470bd;fill-opacity:1;stroke:none;"/><g clip-rule="nonzero" clip-path="url(#c7762a26e4)"><g clip-rule="nonzero" clip-path="url(#417e99d192)"><g clip-rule="nonzero" clip-path="url(#1f7e3f92e9)"><path style=" stroke:none;fill-rule:nonzero;fill:#fcfcfc;fill-opacity:1;" d="M 1601.199219 -57.007812 C 1553.367188 -117.390625 1479.460938 -123.046875 1408.046875 -102.371094 C 1339.429688 -82.714844 1282.757812 -64.382812 1213.054688 -91.464844 C 1155.855469 -113.714844 1108.152344 -153.832031 1056.757812 -185.519531 C 980.28125 -232.664062 889.738281 -266.464844 796.710938 -248.929688 C 628.882812 -217.238281 556.238281 -35.664062 649.027344 99.746094 C 698.609375 172.007812 782.441406 212.605469 867.921875 229.125 C 929.308594 240.960938 983.03125 245.515625 1031.265625 288.074219 C 1065.445312 318.226562 1093.730469 356.007812 1134.183594 378.734375 C 1216.21875 424.796875 1334.457031 385.425781 1416.25 348.132812 C 1508.253906 306.042969 1550.988281 222.589844 1594.445312 138.164062 C 1594.605469 138.054688 1594.605469 138.054688 1594.605469 138.054688 C 1638.738281 79.359375 1647.113281 0.972656 1601.199219 -57.007812 Z M 1601.199219 -57.007812 "/></g></g></g><g mask="url(#b84fe4957b)" transform="matrix(1,0,0,1,0,0.000000000000039746)"><g clip-path="url(#b12f28cf8e)"><g clip-rule="nonzero" clip-path="url(#1d5d18409e)"><g clip-rule="nonzero" clip-path="url(#3c1ec4b7cc)"><g clip-rule="nonzero" clip-path="url(#92558c6a71)"><path style=" stroke:none;fill-rule:nonzero;fill:#f470bd;fill-opacity:1;" d="M 1320.742188 757.78125 C 1290.785156 762.9375 1260.015625 757.808594 1230.558594 750.359375 C 1193.253906 740.929688 1156.617188 727.675781 1123.996094 707.253906 C 1029.144531 647.910156 977.710938 534.925781 882.390625 476.316406 C 823.464844 440.082031 750.203125 427.96875 682.753906 443.265625 C 631.90625 454.808594 585.734375 480.808594 537.757812 501.246094 C 489.777344 521.683594 436.621094 536.832031 385.816406 525.097656 C 335.691406 513.511719 294.582031 477.035156 264.042969 435.617188 C 233.496094 394.21875 211.476562 347.253906 184.488281 303.449219 C 174.871094 287.824219 163.914062 271.953125 147.628906 263.507812 C 117.609375 247.914062 82.78125 262.695312 54.917969 284.285156 L -25.953125 598.949219 L 1397.382812 964.753906 L 1462.84375 710.050781 C 1448.578125 711.101562 1434.167969 714.578125 1420.964844 719.441406 C 1387.328125 731.828125 1356.074219 751.6875 1320.742188 757.78125 Z M 1320.742188 757.78125 "/></g></g></g><g mask="url(#7707263a2a)" transform="matrix(1,0,0,1,0,335)"><g id="33a8e5ed6a" clip-path="url(#a4dce7d1c2)"><g clip-rule="nonzero" clip-path="url(#9a12dd2951)"><g clip-rule="nonzero" clip-path="url(#cd48bda4f0)"><g clip-rule="nonzero" clip-path="url(#9dddf3bf9a)"><path style=" stroke:none;fill-rule:nonzero;fill:#ed5db1;fill-opacity:1;" d="M 1277.914062 518.25 C 1247.957031 523.410156 1217.1875 518.277344 1187.730469 510.828125 C 1150.429688 501.402344 1113.789062 488.144531 1081.167969 467.726562 C 986.320312 408.382812 934.882812 295.394531 839.5625 236.789062 C 780.640625 200.554688 707.378906 188.441406 639.929688 203.734375 C 589.078125 215.277344 542.910156 241.28125 494.929688 261.71875 C 446.953125 282.15625 393.796875 297.304688 342.988281 285.566406 C 292.863281 273.984375 251.757812 237.507812 221.214844 196.089844 C 190.667969 154.691406 168.652344 107.726562 141.660156 63.921875 C 132.042969 48.292969 121.085938 32.421875 104.800781 23.980469 C 74.78125 8.386719 39.953125 23.167969 12.09375 44.757812 L -68.777344 359.421875 L 1354.554688 725.226562 L 1420.015625 470.519531 C 1405.75 471.574219 1391.34375 475.046875 1378.136719 479.910156 C 1344.503906 492.300781 1313.246094 512.15625 1277.914062 518.25 Z M 1277.914062 518.25 "/></g></g></g></g><mask id="7707263a2a"><g filter="url(#4d29920652)"><rect x="0" width="1440" height="810" y="0" style="fill:#000000;fill-opacity:0.8;stroke:none;"/></g></mask></g><g clip-rule="nonzero" clip-path="url(#e4563071c3)"><g clip-rule="nonzero" clip-path="url(#1c9f9e0113)"><g clip-rule="nonzero" clip-path="url(#cfdd3fa0a6)"><path style=" stroke:none;fill-rule:nonzero;fill:#e849a6;fill-opacity:1;" d="M 1261.308594 960.628906 C 1231.355469 965.785156 1200.582031 960.65625 1171.128906 953.207031 C 1133.824219 943.777344 1097.183594 930.523438 1064.566406 910.101562 C 969.714844 850.757812 918.28125 737.773438 822.960938 679.164062 C 764.035156 642.929688 690.773438 630.816406 623.324219 646.113281 C 572.472656 657.65625 526.304688 683.65625 478.328125 704.09375 C 430.347656 724.535156 377.191406 739.683594 326.386719 727.945312 C 276.261719 716.359375 235.152344 679.886719 204.609375 638.46875 C 174.066406 597.066406 152.046875 550.101562 125.058594 506.296875 C 115.4375 490.671875 104.484375 474.800781 88.199219 466.355469 C 58.179688 450.761719 23.347656 465.542969 -4.511719 487.132812 L -85.382812 801.796875 L 1337.953125 1167.601562 L 1403.414062 912.898438 C 1389.148438 913.949219 1374.738281 917.425781 1361.53125 922.289062 C 1327.898438 934.675781 1296.644531 954.535156 1261.308594 960.628906 Z M 1261.308594 960.628906 "/></g></g></g><g clip-rule="nonzero" clip-path="url(#c63a2e6636)"><g clip-rule="nonzero" clip-path="url(#5da2bf0fbb)"><g clip-rule="nonzero" clip-path="url(#e38b9625e6)"><path style=" stroke:none;fill-rule:nonzero;fill:#cb3f91;fill-opacity:1;" d="M 1222.378906 1046.9375 C 1192.421875 1052.09375 1161.652344 1046.964844 1132.195312 1039.515625 C 1094.890625 1030.089844 1058.253906 1016.832031 1025.632812 996.414062 C 930.78125 937.066406 879.347656 824.082031 784.027344 765.476562 C 725.101562 729.238281 651.839844 717.128906 584.390625 732.421875 C 533.542969 743.964844 487.371094 769.96875 439.394531 790.40625 C 391.414062 810.84375 338.257812 825.992188 287.453125 814.253906 C 237.328125 802.671875 196.21875 766.195312 165.679688 724.777344 C 135.132812 683.378906 113.113281 636.414062 86.125 592.609375 C 76.507812 576.980469 65.550781 561.109375 49.265625 552.667969 C 19.246094 537.074219 -15.582031 551.855469 -43.445312 573.445312 L -124.3125 888.105469 L 1299.019531 1253.914062 L 1364.480469 999.207031 C 1350.214844 1000.261719 1335.804688 1003.734375 1322.601562 1008.597656 C 1288.96875 1020.988281 1257.710938 1040.84375 1222.378906 1046.9375 Z M 1222.378906 1046.9375 "/></g></g></g><g clip-rule="nonzero" clip-path="url(#a7b7f1d3b4)"><g clip-rule="nonzero" clip-path="url(#b666e375c8)"><g clip-rule="nonzero" clip-path="url(#f9e193322c)"><path style=" stroke:none;fill-rule:nonzero;fill:#bd267e;fill-opacity:1;" d="M 1164.449219 1156.238281 C 1134.492188 1161.394531 1103.722656 1156.265625 1074.269531 1148.816406 C 1036.964844 1139.386719 1000.324219 1126.132812 967.703125 1105.714844 C 872.855469 1046.367188 821.417969 933.382812 726.097656 874.777344 C 667.175781 838.539062 593.914062 826.429688 526.464844 841.722656 C 475.613281 853.265625 429.445312 879.265625 381.464844 899.703125 C 333.488281 920.144531 280.332031 935.292969 229.527344 923.554688 C 179.398438 911.972656 138.292969 875.496094 107.75 834.078125 C 77.203125 792.675781 55.1875 745.710938 28.195312 701.910156 C 18.578125 686.28125 7.621094 670.410156 -8.660156 661.964844 C -38.683594 646.371094 -73.511719 661.152344 -101.371094 682.742188 L -182.242188 997.40625 L 1241.089844 1363.210938 L 1306.550781 1108.507812 C 1292.285156 1109.558594 1277.878906 1113.035156 1264.671875 1117.898438 C 1231.039062 1130.285156 1199.785156 1150.144531 1164.449219 1156.238281 Z M 1164.449219 1156.238281 "/></g></g></g></g><mask id="b84fe4957b"><g filter="url(#4d29920652)"><rect x="0" width="1440" y="0" height="809.999993" style="fill:#000000;fill-opacity:0.7;stroke:none;"/></g></mask></g></g></svg>